<?xml version="1.0" encoding="iso-8859-1"?>
<!-- Uploaded to: SVG Repo, www.svgrepo.com, Generator: SVG Repo Mixer Tools -->
<svg height="800px" width="800px" version="1.1" id="Layer_1" xmlns="http://www.w3.org/2000/svg" xmlns:xlink="http://www.w3.org/1999/xlink" 
	 viewBox="0 0 512 512" xml:space="preserve">
<path style="fill:#FF8C78;" d="M221.615,68.771C99.416,68.771,0,168.188,0,290.386S99.416,512,221.615,512
	S443.23,412.585,443.23,290.386S343.814,68.771,221.615,68.771z"/>
<path style="fill:#ECEDEF;" d="M221.615,113.205c-97.698,0-177.181,79.484-177.181,177.181s79.482,177.181,177.181,177.181
	s177.181-79.482,177.181-177.181S319.313,113.205,221.615,113.205z"/>
<path style="fill:#FF8C78;" d="M221.615,166.526c-68.296,0-123.86,55.564-123.86,123.86s55.564,123.86,123.86,123.86
	s123.86-55.563,123.86-123.86S289.911,166.526,221.615,166.526z"/>
<path style="fill:#ECEDEF;" d="M221.615,210.96c-43.795,0-79.426,35.631-79.426,79.426s35.631,79.426,79.426,79.426
	s79.426-35.631,79.426-79.426S265.41,210.96,221.615,210.96z"/>
<path style="fill:#FF8C78;" d="M221.615,255.394c-19.294,0-34.992,15.697-34.992,34.992c0,19.294,15.697,34.992,34.992,34.992
	s34.992-15.697,34.992-34.992C256.607,271.091,240.909,255.394,221.615,255.394z"/>
<path style="fill:#DF7A6E;" d="M357.873,403.512c-3.555,4.275-7.304,8.381-11.238,12.304l32.82,29.966
	c3.898-3.958,7.646-8.063,11.24-12.303L357.873,403.512z"/>
<path style="fill:#D9DCDF;" d="M307.214,379.824l39.42,35.993c3.935-3.922,7.684-8.029,11.238-12.304l-39.421-35.993
	C314.981,371.868,311.228,375.981,307.214,379.824z"/>
<path style="fill:#DF7A6E;" d="M318.451,367.52l-32.917-30.055c-3.311,4.483-7.085,8.602-11.245,12.297l32.924,30.062
	C311.228,375.981,314.981,371.868,318.451,367.52z"/>
<path style="fill:#D9DCDF;" d="M241.085,319.445l33.204,30.317c4.16-3.696,7.934-7.814,11.245-12.297l-33.21-30.322
	C249.615,312.089,245.746,316.312,241.085,319.445z"/>
<path style="fill:#DF7A6E;" d="M252.324,307.143l-25.092-22.91l-11.235,12.306l25.087,22.907
	C245.746,316.312,249.615,312.089,252.324,307.143z"/>
<path style="fill:#424F5E;" d="M429.652,70.566L215.724,284.495c-3.034,3.034-3.235,8.044-0.443,11.305
	c3.115,3.638,8.837,3.866,12.225,0.479l213.929-213.93L429.652,70.566z"/>
<path style="fill:#FFC44F;" d="M503.652,63.642h-55.294l-25.835,11.394l-24.436,38.878h66.553c5.669,0,11.105-2.252,15.114-6.261
	l29.789-29.789C514.792,72.616,511.075,63.642,503.652,63.642z"/>
<path style="fill:#C4DF64;" d="M448.36,8.348v55.294l-50.272,50.272V47.359c0-5.669,2.252-11.105,6.261-15.114l29.789-29.789
	C439.385-2.791,448.36,0.926,448.36,8.348z"/>
</svg>